<svg width="91" height="91" xmlns="http://www.w3.org/2000/svg">

 <g>
  <title>background</title>
  <rect fill="none" id="canvas_background" height="402" width="582" y="-1" x="-1"/>
 </g>
 <g>
  <title>Layer 1</title>
  <path id="svg_9" fill="#d0d0d0" d="m89.282,33.1c-0.142,-0.136 -0.301,-0.241 -0.466,-0.332c-0.264,-0.45 -0.665,-0.814 -1.183,-0.985c-2.616,-0.865 -25.71,-8.447 -30.605,-8.617c-4.039,-0.121 -8.816,1.385 -11.59,4.168c-1.854,-1.979 -5.119,-4.176 -10.479,-4.176c-8.444,0 -30.669,7.495 -31.61,7.816c-0.297,0.101 -0.545,0.276 -0.767,0.48c-0.297,0.093 -0.579,0.242 -0.821,0.462c-0.764,0.694 -0.937,1.83 -0.417,2.721c0.776,1.327 19.268,32.509 43.158,32.509c23.794,0 44.222,-29.972 45.079,-31.248c0.594,-0.882 0.467,-2.062 -0.299,-2.798zm-54.322,-5.569c6.502,0 8.439,4.36 8.509,4.522c0.347,0.863 1.208,1.443 2.125,1.374c0.929,-0.041 1.73,-0.662 2.001,-1.551c0.712,-2.347 5.243,-4.49 9.282,-4.339c2.548,0.09 13.076,3.189 22.339,6.121c-6.597,1.418 -17.884,3.131 -33.896,3.131c-16.414,0 -27.722,-2.093 -34.107,-3.749c7.246,-2.245 18.649,-5.507 23.747,-5.509zm42.113,11.04c-7.55,3.945 -18.733,8.504 -30.123,8.504c-0.432,0 -0.861,-0.008 -1.295,-0.021c-10.736,-0.326 -21.442,-4.461 -29.244,-8.349c6.86,1.306 16.441,2.459 28.908,2.459c14.202,0.001 24.735,-1.29 31.754,-2.593zm-32.57,24.2c-14.025,0 -26.522,-12.931 -33.508,-21.91c8.271,4.504 21.205,10.163 34.527,10.567c12.539,0.388 24.651,-4.343 32.915,-8.591c-7.724,8.577 -20.493,19.934 -33.934,19.934z"/>
 </g>
</svg>