<svg width="512" height="512" xmlns="http://www.w3.org/2000/svg">

 <g>
  <title>background</title>
  <rect fill="none" id="canvas_background" height="402" width="582" y="-1" x="-1"/>
 </g>
 <g>
  <title>Layer 1</title>
  <path id="svg_2" fill="#ffffff" d="m256,64c-106.031,0 -192,85.968 -192,192c0,106.031 85.969,192 192,192s192,-85.969 192,-192c0,-106.032 -85.969,-192 -192,-192zm128,192c0,17.675 -14.312,32 -32,32l-192,0c-17.675,0 -32,-14.325 -32,-32l0,-64c0,-17.675 14.325,-32 32,-32l192,0c17.688,0 32,14.325 32,32l0,64zm-80,-64c-8.844,0 -16,7.156 -16,16l0,32c0,8.843 7.156,16 16,16s16,-7.157 16,-16l0,-32c0,-8.844 -7.156,-16 -16,-16zm-96,0c-8.844,0 -16,7.156 -16,16l0,32c0,8.843 7.156,16 16,16s16,-7.157 16,-16l0,-32c0,-8.844 -7.156,-16 -16,-16z"/>
 </g>
</svg>