<svg width="512" height="512" xmlns="http://www.w3.org/2000/svg">

 <g>
  <title>background</title>
  <rect fill="none" id="canvas_background" height="402" width="582" y="-1" x="-1"/>
 </g>
 <g>
  <title>Layer 1</title>
  <path fill="#d0d0d0" id="svg_1" d="m384,280l0,-16l-16,0l0,16a87.46023,87.46023 0 0 0 10.51465,41.68066c0.92822,3.19434 1.852,6.50245 2.75879,9.884l-10.14551,20.29077a139.5974,139.5974 0 0 1 -158.71875,73.001l-2.46875,-0.61719l-3.88086,15.52148l2.46875,0.61719a153.96767,153.96767 0 0 0 18.97607,3.49243a241.30409,241.30409 0 0 1 -127.24169,36.12966a47.70276,47.70276 0 0 1 -46.61329,-36.91895l-4.01171,-17.04687a241.08784,241.08784 0 0 1 10.21289,-143.69824l43.59961,-111.42094a8.00438,8.00438 0 0 0 0.5498,-2.915l0,-84.37012l57.669,-50.46l56.21479,21.08012l12.957,32.39258l-23.50391,29.38086l-22.18356,-22.18457l6.43652,-19.3086l-15.17968,-5.06054l-8,24a8.00185,8.00185 0 0 0 1.93261,8.1875l19.20823,19.20825l-36.0608,50.48511a7.997,7.997 0 0 0 -1.42871,5.6416l5.64063,45.123a385.55181,385.55181 0 0 1 -13.36426,159.58594l15.32422,4.59766a402.57247,402.57247 0 0 0 16.43457,-93.124a157.30677,157.30677 0 0 1 125.30615,-84.91552c0.63086,2.70605 1.37988,5.397 2.26807,8.062l8.74023,26.21l15.17774,-5.0625l-8.73926,-26.208a74.88507,74.88507 0 0 1 87.67676,-96.709a83.90523,83.90523 0 0 0 -3.58692,10.04l-2.63183,9.21l15.38476,4.39648l2.63184,-9.21094a69.30028,69.30028 0 0 1 54.99121,-49.0957l-2.63086,-15.7832a85.383,85.383 0 0 0 -56.2041,35.97217a90.85869,90.85869 0 0 0 -115.32764,92.31762a173.55251,173.55251 0 0 0 -122.51025,69.56006a407.66811,407.66811 0 0 0 -3.06348,-41.82739l-5.25293,-42.02344l32.69409,-45.7727l1.32251,1.32251a8.0014,8.0014 0 0 0 11.9043,-0.66016l32,-40a7.99747,7.99747 0 0 0 1.18066,-7.96777l-16,-40a7.99688,7.99688 0 0 0 -4.61914,-4.51953l-64,-24a7.98877,7.98877 0 0 0 -8.07617,1.46972l-64,56a7.999,7.999 0 0 0 -2.73239,6.0205l0,86.49023l-43.0498,110.01563a257.02156,257.02156 0 0 0 -10.88672,153.19238l4.01172,17.04785a63.64122,63.64122 0 0 0 62.1875,49.25391a257.33133,257.33133 0 0 0 143.19238,-43.35547l8.98242,-5.98828l-1.17554,-1.76343a155.41727,155.41727 0 0 0 134.17652,-85.8811l1.70263,-3.405a545.57926,545.57926 0 0 1 12.85889,117.64328l0,22.75l16,0l0,-22.75a561.54778,561.54778 0 0 0 -13.80322,-123.66406a87.555,87.555 0 0 0 53.80322,18.41406l0,-16a72.08124,72.08124 0 0 1 -72,-72z"/>
  <path fill="#d0d0d0" id="svg_2" d="m432,155.71582a60.28555,60.28555 0 0 1 -60.28418,60.28418l-11.71582,0l0,16l11.71582,0a76.283,76.283 0 0 0 76.28418,-76.28418l0,-3.71582l-16,0l0,3.71582z"/>
  <path fill="#d0d0d0" id="svg_3" d="m72.64648,404.84863l14.707,6.30274l6.91113,-16.127a434.45212,434.45212 0 0 0 33.71191,-203.63769l-15.95312,1.22656a418.37978,418.37978 0 0 1 -32.46582,196.1084l-6.9111,16.12699z"/>
  <path fill="#d0d0d0" id="svg_4" d="m308.52637,276.91113a72.99649,72.99649 0 0 1 -62.75293,54.84278l-38.65723,4.29492l1.76758,15.90234l38.65723,-4.29492a88.99349,88.99349 0 0 0 76.50683,-66.86425l3.71289,-14.85156l-15.52148,-3.88086l-3.71289,14.85155z"/>
 </g>
</svg>