<svg width="16" height="16" xmlns="http://www.w3.org/2000/svg">
 <title/>

 <g>
  <title>background</title>
  <rect fill="none" id="canvas_background" height="402" width="582" y="-1" x="-1"/>
 </g>
 <g>
  <title>Layer 1</title>
  <path fill="#d0d0d0" id="Rectangle 310" d="m1,5l0,8c0,-1.05884 1.96499,-1.99792 3.5,-1.99793c1.53501,0 3.5,1.05604 3.5,1.99793l0,-8c0,-1.10457 -1.948,-2.02539 -3.5,-2.02539c-1.552,0 -3.5,0.92082 -3.5,2.02539zm1,0.4c0,-0.7732 1.39143,-1.41777 2.5,-1.41777c1.10857,0 2.5,0.64457 2.5,1.41777l0,5.6c0,-0.65933 -1.40356,-0.99518 -2.5,-0.99518c-1.09644,0 -2.5,0.25399 -2.5,0.99518l0,-5.6zm6,-0.4c0,-1.10457 1.948,-2.02539 3.5,-2.02539c1.552,0 3.5,0.92082 3.5,2.02539l0,8c0,-0.94189 -1.96499,-1.99793 -3.5,-1.99793c-1.53501,0.00001 -3.5,0.93909 -3.5,1.99793l0,-8zm1,0.4l0,5.6c0,-0.74119 1.40356,-0.99518 2.5,-0.99518c1.09644,0 2.5,0.33585 2.5,0.99518l0,-5.6c0,-0.7732 -1.39143,-1.41777 -2.5,-1.41777c-1.10857,0 -2.5,0.64457 -2.5,1.41777zm0,0"/>
 </g>
</svg>