<svg width="64" height="64" xmlns="http://www.w3.org/2000/svg">

 <g>
  <title>background</title>
  <rect fill="none" id="canvas_background" height="402" width="582" y="-1" x="-1"/>
 </g>
 <g>
  <title>Layer 1</title>
  <circle id="svg_2" r="32" fill="#ae0000" cy="32" cx="31.833"/>
  <path opacity="0.2" id="svg_6" fill="#231F20" d="m28,23l0,-9l-13,0c-1.657,0 -3,1.343 -3,3l0,34c0,1.657 1.343,3 3,3l22,0c1.657,0 3,-1.343 3,-3l0,-25l-9,0c-1.657,0 -3,-1.343 -3,-3z"/>
  <path id="svg_8" fill="#E0E0D1" d="m37,12l-9,0l-13,0c-1.657,0 -3,1.343 -3,3l0,25l0,9c0,1.657 1.343,3 3,3l9,0l13,0c1.657,0 3,-1.343 3,-3l0,-25l0,-9c0,-1.657 -1.343,-3 -3,-3z"/>
  <rect opacity="0.2" id="svg_10" y="19" x="16" width="10" height="2" fill="#231F20"/>
  <rect opacity="0.2" id="svg_12" y="35" x="16" width="20" height="2" fill="#231F20"/>
  <rect opacity="0.2" id="svg_14" y="30" x="16" width="20" height="2" fill="#231F20"/>
  <rect opacity="0.2" id="svg_16" y="25" x="16" width="20" height="2" fill="#231F20"/>
  <rect opacity="0.2" id="svg_18" y="40" x="16" width="20" height="2" fill="#231F20"/>
  <rect opacity="0.2" id="svg_20" y="45" x="16" width="20" height="2" fill="#231F20"/>
  <path opacity="0.2" id="svg_22" fill="#231F20" d="m55.121,21.864l-7.071,-7.071c-1.172,-1.172 -3.071,-1.172 -4.243,0l-3.536,3.536l-0.707,0.707l-16.262,16.263l-1.886,9.428l-0.943,4.714l4.714,-0.943l9.428,-1.886l16.263,-16.263l0.707,-0.707l3.536,-3.536c1.172,-1.171 1.172,-3.07 0,-4.242z"/>
  <path id="svg_24" fill="#C75C5C" d="m50.879,28.435c-1.172,1.172 -3.071,1.172 -4.243,0l-7.071,-7.071c-1.172,-1.172 -1.172,-3.071 0,-4.243l4.243,-4.243c1.172,-1.172 3.071,-1.172 4.243,0l7.071,7.071c1.172,1.172 1.172,3.071 0,4.243l-4.243,4.243z"/>
  <rect id="svg_26" y="24.314" x="21.201" width="24" transform="matrix(0.7071,-0.7071,0.7071,0.7071,-8.8823,31.1838) " height="4" fill="#E0995E"/>
  <rect id="svg_28" y="27.263" x="23.737" width="26" transform="matrix(0.7071,-0.7071,0.7071,0.7071,-11.3467,35.1335) " height="8" fill="#F5CF87"/>
  <rect id="svg_30" y="32.799" x="29.686" width="24" transform="matrix(0.7071,-0.7071,0.7071,0.7071,-12.397,39.669) " height="4" fill="#E0995E"/>
  <polygon id="svg_33" points="20.473,47.527 25.187,46.584 21.416,42.813    " fill="#4F5D73"/>
  <polygon id="svg_35" points="23.302,33.385 21.416,42.813 25.187,46.584 34.615,44.698 33.201,43.284 33.201,40.456      27.544,40.456 27.544,34.799 24.716,34.799    " fill="#FFFFFF"/>
 </g>
</svg>